<svg width="971" height="110" viewBox="0 0 971 110" fill="none" xmlns="http://www.w3.org/2000/svg">
<mask id="path-1-outside-1_59_3" maskUnits="userSpaceOnUse" x="0.140991" y="0.399994" width="971" height="110" fill="black">
<rect fill="white" x="0.140991" y="0.399994" width="971" height="110"/>
<path d="M36.661 99H9.14099V10.68H72.245V30.904H36.661V45.368H68.149V63.928H36.661V99Z"/>
<path d="M146.83 10.68L180.11 99H151.438L146.318 81.464H119.694L114.574 99H85.774L119.182 10.68H146.83ZM140.814 62.904L133.39 37.688H132.366L125.198 62.904H140.814Z"/>
<path d="M289.408 99H267.648L235.264 53.176H234.496V99H206.976V10.68H233.984L261.248 49.208H261.888V10.68H289.408V99Z"/>
<path d="M316.362 10.68H394.954V30.904H369.226V99H341.706V30.904H316.362V10.68Z"/>
<path d="M466.52 10.68L499.8 99H471.128L466.008 81.464H439.384L434.264 99H405.464L438.872 10.68H466.52ZM460.504 62.904L453.08 37.688H452.056L444.888 62.904H460.504Z"/>
<path d="M600.906 38.84H575.178C574.325 35.512 572.874 32.9947 570.826 31.288C568.863 29.496 565.493 28.6 560.714 28.6C557.301 28.6 554.527 29.3253 552.394 30.776C550.261 32.1413 549.194 33.8053 549.194 35.768C549.194 38.072 550.474 39.9067 553.034 41.272C555.679 42.552 558.922 43.448 562.762 43.96C566.687 44.3867 570.911 45.112 575.434 46.136C580.042 47.16 584.266 48.3973 588.106 49.848C592.031 51.2133 595.274 53.6453 597.834 57.144C600.479 60.6427 601.802 64.9947 601.802 70.2C601.802 79.0747 597.877 86.3707 590.026 92.088C582.261 97.8053 572.49 100.664 560.714 100.664C555.935 100.664 551.455 100.195 547.274 99.256C543.093 98.3173 539.039 96.7813 535.114 94.648C531.274 92.5147 528.031 89.4853 525.386 85.56C522.741 81.5493 520.991 76.7707 520.138 71.224H546.25C546.762 74.9787 548.426 77.624 551.242 79.16C554.058 80.696 557.215 81.464 560.714 81.464C564.81 81.464 568.053 80.8667 570.442 79.672C572.917 78.392 574.154 76.6427 574.154 74.424C574.154 72.888 573.429 71.6507 571.978 70.712C570.527 69.688 568.607 68.9627 566.218 68.536C563.829 68.1093 561.098 67.5973 558.026 67C554.954 66.4027 551.797 65.848 548.554 65.336C545.397 64.7387 542.282 63.7573 539.21 62.392C536.138 61.0267 533.407 59.4053 531.018 57.528C528.629 55.5653 526.709 52.92 525.258 49.592C523.807 46.264 523.082 42.3813 523.082 37.944C523.082 30.4347 526.581 23.8213 533.578 18.104C540.661 12.3013 549.706 9.39999 560.714 9.39999C572.063 9.39999 581.322 11.9173 588.49 16.952C595.743 21.9867 599.882 29.2827 600.906 38.84Z"/>
<path d="M654.302 99V65.464L623.582 10.68H653.534L667.23 39.48H667.998L681.822 10.68H711.774L681.054 65.464V99H654.302Z"/>
<path d="M740.001 10.68H779.041L792.865 66.616H793.505L807.201 10.68H846.369V99H818.849V41.912H818.081L804.129 99H782.113L768.161 41.912H767.521V99H740.001V10.68Z"/>
<path d="M920.875 29.88C916.011 29.88 912.598 31.5013 910.635 34.744C908.758 37.9867 907.819 43.0213 907.819 49.848V60.216C907.819 67.0427 908.758 72.0773 910.635 75.32C912.598 78.5627 916.011 80.184 920.875 80.184C925.398 80.184 928.512 78.776 930.219 75.96C931.926 73.144 932.779 69.2187 932.779 64.184H961.579C961.067 75.448 957.44 84.3653 950.699 90.936C943.958 97.4213 934.016 100.664 920.875 100.664C906.966 100.664 896.512 97.1227 889.515 90.04C882.518 82.9573 879.019 73.016 879.019 60.216V49.848C879.019 37.048 882.518 27.1067 889.515 20.024C896.512 12.9413 906.966 9.39999 920.875 9.39999C933.078 9.39999 942.55 12.1733 949.291 17.72C956.032 23.2667 959.744 30.904 960.427 40.632H932.907C931.883 33.464 927.872 29.88 920.875 29.88Z"/>
</mask>
<path d="M36.661 99H9.14099V10.68H72.245V30.904H36.661V45.368H68.149V63.928H36.661V99Z" stroke="white" stroke-width="18" mask="url(#path-1-outside-1_59_3)"/>
<path d="M146.83 10.68L180.11 99H151.438L146.318 81.464H119.694L114.574 99H85.774L119.182 10.68H146.83ZM140.814 62.904L133.39 37.688H132.366L125.198 62.904H140.814Z" stroke="white" stroke-width="18" mask="url(#path-1-outside-1_59_3)"/>
<path d="M289.408 99H267.648L235.264 53.176H234.496V99H206.976V10.68H233.984L261.248 49.208H261.888V10.68H289.408V99Z" stroke="white" stroke-width="18" mask="url(#path-1-outside-1_59_3)"/>
<path d="M316.362 10.68H394.954V30.904H369.226V99H341.706V30.904H316.362V10.68Z" stroke="white" stroke-width="18" mask="url(#path-1-outside-1_59_3)"/>
<path d="M466.52 10.68L499.8 99H471.128L466.008 81.464H439.384L434.264 99H405.464L438.872 10.68H466.52ZM460.504 62.904L453.08 37.688H452.056L444.888 62.904H460.504Z" stroke="white" stroke-width="18" mask="url(#path-1-outside-1_59_3)"/>
<path d="M600.906 38.84H575.178C574.325 35.512 572.874 32.9947 570.826 31.288C568.863 29.496 565.493 28.6 560.714 28.6C557.301 28.6 554.527 29.3253 552.394 30.776C550.261 32.1413 549.194 33.8053 549.194 35.768C549.194 38.072 550.474 39.9067 553.034 41.272C555.679 42.552 558.922 43.448 562.762 43.96C566.687 44.3867 570.911 45.112 575.434 46.136C580.042 47.16 584.266 48.3973 588.106 49.848C592.031 51.2133 595.274 53.6453 597.834 57.144C600.479 60.6427 601.802 64.9947 601.802 70.2C601.802 79.0747 597.877 86.3707 590.026 92.088C582.261 97.8053 572.49 100.664 560.714 100.664C555.935 100.664 551.455 100.195 547.274 99.256C543.093 98.3173 539.039 96.7813 535.114 94.648C531.274 92.5147 528.031 89.4853 525.386 85.56C522.741 81.5493 520.991 76.7707 520.138 71.224H546.25C546.762 74.9787 548.426 77.624 551.242 79.16C554.058 80.696 557.215 81.464 560.714 81.464C564.81 81.464 568.053 80.8667 570.442 79.672C572.917 78.392 574.154 76.6427 574.154 74.424C574.154 72.888 573.429 71.6507 571.978 70.712C570.527 69.688 568.607 68.9627 566.218 68.536C563.829 68.1093 561.098 67.5973 558.026 67C554.954 66.4027 551.797 65.848 548.554 65.336C545.397 64.7387 542.282 63.7573 539.21 62.392C536.138 61.0267 533.407 59.4053 531.018 57.528C528.629 55.5653 526.709 52.92 525.258 49.592C523.807 46.264 523.082 42.3813 523.082 37.944C523.082 30.4347 526.581 23.8213 533.578 18.104C540.661 12.3013 549.706 9.39999 560.714 9.39999C572.063 9.39999 581.322 11.9173 588.49 16.952C595.743 21.9867 599.882 29.2827 600.906 38.84Z" stroke="white" stroke-width="18" mask="url(#path-1-outside-1_59_3)"/>
<path d="M654.302 99V65.464L623.582 10.68H653.534L667.23 39.48H667.998L681.822 10.68H711.774L681.054 65.464V99H654.302Z" stroke="white" stroke-width="18" mask="url(#path-1-outside-1_59_3)"/>
<path d="M740.001 10.68H779.041L792.865 66.616H793.505L807.201 10.68H846.369V99H818.849V41.912H818.081L804.129 99H782.113L768.161 41.912H767.521V99H740.001V10.68Z" stroke="white" stroke-width="18" mask="url(#path-1-outside-1_59_3)"/>
<path d="M920.875 29.88C916.011 29.88 912.598 31.5013 910.635 34.744C908.758 37.9867 907.819 43.0213 907.819 49.848V60.216C907.819 67.0427 908.758 72.0773 910.635 75.32C912.598 78.5627 916.011 80.184 920.875 80.184C925.398 80.184 928.512 78.776 930.219 75.96C931.926 73.144 932.779 69.2187 932.779 64.184H961.579C961.067 75.448 957.44 84.3653 950.699 90.936C943.958 97.4213 934.016 100.664 920.875 100.664C906.966 100.664 896.512 97.1227 889.515 90.04C882.518 82.9573 879.019 73.016 879.019 60.216V49.848C879.019 37.048 882.518 27.1067 889.515 20.024C896.512 12.9413 906.966 9.39999 920.875 9.39999C933.078 9.39999 942.55 12.1733 949.291 17.72C956.032 23.2667 959.744 30.904 960.427 40.632H932.907C931.883 33.464 927.872 29.88 920.875 29.88Z" stroke="white" stroke-width="18" mask="url(#path-1-outside-1_59_3)"/>
</svg>
